<mxfile host="app.diagrams.net" agent="Mozilla/5.0 (Windows NT 10.0; Win64; x64) AppleWebKit/537.36 (KHTML, like Gecko) Chrome/131.0.0.0 Safari/537.36" version="25.0.3">
  <diagram name="第 1 页" id="ovz5KbLrIUngX_mGJ8c8">
    <mxGraphModel dx="2977" dy="2097" grid="1" gridSize="10" guides="1" tooltips="1" connect="1" arrows="1" fold="1" page="1" pageScale="1" pageWidth="827" pageHeight="1169" math="0" shadow="0">
      <root>
        <mxCell id="0" />
        <mxCell id="1" parent="0" />
        <mxCell id="9HWHHbt5v9MPu5D0UGkf-12" style="edgeStyle=orthogonalEdgeStyle;rounded=0;orthogonalLoop=1;jettySize=auto;html=1;entryX=0.5;entryY=0;entryDx=0;entryDy=0;" parent="1" source="9HWHHbt5v9MPu5D0UGkf-1" target="9HWHHbt5v9MPu5D0UGkf-11" edge="1">
          <mxGeometry relative="1" as="geometry" />
        </mxCell>
        <mxCell id="9HWHHbt5v9MPu5D0UGkf-1" value="Start" style="ellipse;whiteSpace=wrap;html=1;" parent="1" vertex="1">
          <mxGeometry x="360" y="-270" width="86" height="60" as="geometry" />
        </mxCell>
        <mxCell id="FQiXvJ6_Js1WaNVE7BKq-2" style="edgeStyle=orthogonalEdgeStyle;rounded=0;orthogonalLoop=1;jettySize=auto;html=1;" parent="1" source="9HWHHbt5v9MPu5D0UGkf-2" target="9HWHHbt5v9MPu5D0UGkf-4" edge="1">
          <mxGeometry relative="1" as="geometry" />
        </mxCell>
        <mxCell id="_xWxR4KmvNVSrHny2rZ4-2" style="edgeStyle=orthogonalEdgeStyle;rounded=0;orthogonalLoop=1;jettySize=auto;html=1;" edge="1" parent="1" source="9HWHHbt5v9MPu5D0UGkf-2">
          <mxGeometry relative="1" as="geometry">
            <mxPoint x="880" y="190" as="targetPoint" />
          </mxGeometry>
        </mxCell>
        <mxCell id="9HWHHbt5v9MPu5D0UGkf-2" value="Choose" style="rhombus;whiteSpace=wrap;html=1;" parent="1" vertex="1">
          <mxGeometry x="363" y="150" width="80" height="80" as="geometry" />
        </mxCell>
        <mxCell id="9HWHHbt5v9MPu5D0UGkf-4" value="End" style="ellipse;whiteSpace=wrap;html=1;" parent="1" vertex="1">
          <mxGeometry x="358" y="1250" width="90" height="60" as="geometry" />
        </mxCell>
        <mxCell id="9HWHHbt5v9MPu5D0UGkf-6" value="3.&amp;nbsp;&lt;span style=&quot;background-color: initial;&quot;&gt;Exit&lt;/span&gt;" style="text;html=1;align=center;verticalAlign=middle;whiteSpace=wrap;rounded=0;" parent="1" vertex="1">
          <mxGeometry x="343" y="240" width="60" height="30" as="geometry" />
        </mxCell>
        <mxCell id="9HWHHbt5v9MPu5D0UGkf-13" style="edgeStyle=orthogonalEdgeStyle;rounded=0;orthogonalLoop=1;jettySize=auto;html=1;entryX=0.5;entryY=0;entryDx=0;entryDy=0;" parent="1" source="9HWHHbt5v9MPu5D0UGkf-11" target="9HWHHbt5v9MPu5D0UGkf-14" edge="1">
          <mxGeometry relative="1" as="geometry">
            <mxPoint x="403" y="-10" as="targetPoint" />
          </mxGeometry>
        </mxCell>
        <mxCell id="9HWHHbt5v9MPu5D0UGkf-11" value="Display Login Page" style="rounded=0;whiteSpace=wrap;html=1;" parent="1" vertex="1">
          <mxGeometry x="343" y="-140" width="120" height="60" as="geometry" />
        </mxCell>
        <mxCell id="9HWHHbt5v9MPu5D0UGkf-16" style="edgeStyle=orthogonalEdgeStyle;rounded=0;orthogonalLoop=1;jettySize=auto;html=1;entryX=0.5;entryY=0;entryDx=0;entryDy=0;" parent="1" source="9HWHHbt5v9MPu5D0UGkf-14" target="9HWHHbt5v9MPu5D0UGkf-2" edge="1">
          <mxGeometry relative="1" as="geometry" />
        </mxCell>
        <mxCell id="9HWHHbt5v9MPu5D0UGkf-14" value="Login(1),&lt;div&gt;Register(2),&lt;div&gt;Exit(3)&lt;/div&gt;&lt;/div&gt;" style="shape=parallelogram;perimeter=parallelogramPerimeter;whiteSpace=wrap;html=1;fixedSize=1;" parent="1" vertex="1">
          <mxGeometry x="343" width="120" height="60" as="geometry" />
        </mxCell>
        <mxCell id="9HWHHbt5v9MPu5D0UGkf-17" value="1. Login" style="text;html=1;align=center;verticalAlign=middle;whiteSpace=wrap;rounded=0;" parent="1" vertex="1">
          <mxGeometry x="514" y="150" width="60" height="30" as="geometry" />
        </mxCell>
        <mxCell id="9HWHHbt5v9MPu5D0UGkf-18" value="2. Register" style="text;html=1;align=center;verticalAlign=middle;whiteSpace=wrap;rounded=0;" parent="1" vertex="1">
          <mxGeometry x="280" y="150" width="80" height="30" as="geometry" />
        </mxCell>
        <mxCell id="9HWHHbt5v9MPu5D0UGkf-20" value="" style="edgeStyle=orthogonalEdgeStyle;rounded=0;orthogonalLoop=1;jettySize=auto;html=1;exitX=0;exitY=0.5;exitDx=0;exitDy=0;" parent="1" source="9HWHHbt5v9MPu5D0UGkf-2" target="9HWHHbt5v9MPu5D0UGkf-19" edge="1">
          <mxGeometry relative="1" as="geometry">
            <mxPoint x="210" y="189.5" as="targetPoint" />
            <mxPoint x="323" y="189.5" as="sourcePoint" />
          </mxGeometry>
        </mxCell>
        <mxCell id="9HWHHbt5v9MPu5D0UGkf-27" value="" style="edgeStyle=orthogonalEdgeStyle;rounded=0;orthogonalLoop=1;jettySize=auto;html=1;" parent="1" source="9HWHHbt5v9MPu5D0UGkf-19" target="9HWHHbt5v9MPu5D0UGkf-25" edge="1">
          <mxGeometry relative="1" as="geometry" />
        </mxCell>
        <mxCell id="9HWHHbt5v9MPu5D0UGkf-19" value="Input Email" style="shape=parallelogram;perimeter=parallelogramPerimeter;whiteSpace=wrap;html=1;fixedSize=1;" parent="1" vertex="1">
          <mxGeometry x="140" y="160" width="120" height="60" as="geometry" />
        </mxCell>
        <mxCell id="9HWHHbt5v9MPu5D0UGkf-31" value="" style="edgeStyle=orthogonalEdgeStyle;rounded=0;orthogonalLoop=1;jettySize=auto;html=1;" parent="1" source="9HWHHbt5v9MPu5D0UGkf-25" target="9HWHHbt5v9MPu5D0UGkf-30" edge="1">
          <mxGeometry relative="1" as="geometry" />
        </mxCell>
        <mxCell id="9HWHHbt5v9MPu5D0UGkf-41" style="edgeStyle=orthogonalEdgeStyle;rounded=0;orthogonalLoop=1;jettySize=auto;html=1;entryX=0;entryY=0.75;entryDx=0;entryDy=0;" parent="1" source="9HWHHbt5v9MPu5D0UGkf-25" target="9HWHHbt5v9MPu5D0UGkf-11" edge="1">
          <mxGeometry relative="1" as="geometry">
            <Array as="points">
              <mxPoint x="30" y="325" />
              <mxPoint x="30" y="-95" />
            </Array>
          </mxGeometry>
        </mxCell>
        <mxCell id="9HWHHbt5v9MPu5D0UGkf-25" value="Valid Email Format" style="rhombus;whiteSpace=wrap;html=1;" parent="1" vertex="1">
          <mxGeometry x="155" y="280" width="90" height="90" as="geometry" />
        </mxCell>
        <mxCell id="9HWHHbt5v9MPu5D0UGkf-29" value="Invalid Format" style="text;html=1;align=center;verticalAlign=middle;whiteSpace=wrap;rounded=0;" parent="1" vertex="1">
          <mxGeometry x="30" y="280" width="60" height="30" as="geometry" />
        </mxCell>
        <mxCell id="9HWHHbt5v9MPu5D0UGkf-37" value="" style="edgeStyle=orthogonalEdgeStyle;rounded=0;orthogonalLoop=1;jettySize=auto;html=1;" parent="1" source="9HWHHbt5v9MPu5D0UGkf-30" target="9HWHHbt5v9MPu5D0UGkf-36" edge="1">
          <mxGeometry relative="1" as="geometry" />
        </mxCell>
        <mxCell id="9HWHHbt5v9MPu5D0UGkf-30" value="Input Password" style="shape=parallelogram;perimeter=parallelogramPerimeter;whiteSpace=wrap;html=1;fixedSize=1;" parent="1" vertex="1">
          <mxGeometry x="140" y="460" width="120" height="60" as="geometry" />
        </mxCell>
        <mxCell id="9HWHHbt5v9MPu5D0UGkf-32" value="Valid" style="text;html=1;align=center;verticalAlign=middle;resizable=0;points=[];autosize=1;strokeColor=none;fillColor=none;" parent="1" vertex="1">
          <mxGeometry x="210" y="390" width="50" height="30" as="geometry" />
        </mxCell>
        <mxCell id="9HWHHbt5v9MPu5D0UGkf-35" style="edgeStyle=orthogonalEdgeStyle;rounded=0;orthogonalLoop=1;jettySize=auto;html=1;entryX=0;entryY=0.25;entryDx=0;entryDy=0;" parent="1" source="9HWHHbt5v9MPu5D0UGkf-33" target="9HWHHbt5v9MPu5D0UGkf-11" edge="1">
          <mxGeometry relative="1" as="geometry">
            <Array as="points">
              <mxPoint x="-20" y="800" />
              <mxPoint x="-20" y="-125" />
            </Array>
          </mxGeometry>
        </mxCell>
        <mxCell id="9HWHHbt5v9MPu5D0UGkf-33" value="Save User Inform to excel" style="rounded=0;whiteSpace=wrap;html=1;" parent="1" vertex="1">
          <mxGeometry x="140" y="770" width="120" height="60" as="geometry" />
        </mxCell>
        <mxCell id="9HWHHbt5v9MPu5D0UGkf-38" value="" style="edgeStyle=orthogonalEdgeStyle;rounded=0;orthogonalLoop=1;jettySize=auto;html=1;" parent="1" source="9HWHHbt5v9MPu5D0UGkf-36" target="9HWHHbt5v9MPu5D0UGkf-33" edge="1">
          <mxGeometry relative="1" as="geometry" />
        </mxCell>
        <mxCell id="9HWHHbt5v9MPu5D0UGkf-40" style="edgeStyle=orthogonalEdgeStyle;rounded=0;orthogonalLoop=1;jettySize=auto;html=1;entryX=0;entryY=0.5;entryDx=0;entryDy=0;" parent="1" source="9HWHHbt5v9MPu5D0UGkf-36" target="9HWHHbt5v9MPu5D0UGkf-11" edge="1">
          <mxGeometry relative="1" as="geometry">
            <Array as="points">
              <mxPoint x="10" y="645" />
              <mxPoint x="10" y="-110" />
            </Array>
          </mxGeometry>
        </mxCell>
        <mxCell id="9HWHHbt5v9MPu5D0UGkf-36" value="Check if Email exists&amp;nbsp;" style="rhombus;whiteSpace=wrap;html=1;" parent="1" vertex="1">
          <mxGeometry x="145" y="590" width="110" height="110" as="geometry" />
        </mxCell>
        <mxCell id="9HWHHbt5v9MPu5D0UGkf-43" value="Exitst" style="text;html=1;align=center;verticalAlign=middle;whiteSpace=wrap;rounded=0;" parent="1" vertex="1">
          <mxGeometry x="60" y="610" width="60" height="30" as="geometry" />
        </mxCell>
        <mxCell id="9HWHHbt5v9MPu5D0UGkf-45" value="Does not exist" style="text;html=1;align=center;verticalAlign=middle;resizable=0;points=[];autosize=1;strokeColor=none;fillColor=none;" parent="1" vertex="1">
          <mxGeometry x="210" y="710" width="100" height="30" as="geometry" />
        </mxCell>
        <mxCell id="FQiXvJ6_Js1WaNVE7BKq-9" value="" style="edgeStyle=orthogonalEdgeStyle;rounded=0;orthogonalLoop=1;jettySize=auto;html=1;" parent="1" source="FQiXvJ6_Js1WaNVE7BKq-5" target="FQiXvJ6_Js1WaNVE7BKq-8" edge="1">
          <mxGeometry relative="1" as="geometry" />
        </mxCell>
        <mxCell id="FQiXvJ6_Js1WaNVE7BKq-5" value="Display User Page" style="rounded=0;whiteSpace=wrap;html=1;" parent="1" vertex="1">
          <mxGeometry x="881.5" y="170" width="120" height="110" as="geometry" />
        </mxCell>
        <mxCell id="FQiXvJ6_Js1WaNVE7BKq-12" style="edgeStyle=orthogonalEdgeStyle;rounded=0;orthogonalLoop=1;jettySize=auto;html=1;entryX=1;entryY=0.5;entryDx=0;entryDy=0;" parent="1" source="FQiXvJ6_Js1WaNVE7BKq-7" target="9HWHHbt5v9MPu5D0UGkf-11" edge="1">
          <mxGeometry relative="1" as="geometry">
            <mxPoint x="1030" y="525" as="targetPoint" />
            <Array as="points">
              <mxPoint x="1080" y="515" />
              <mxPoint x="1080" y="-110" />
            </Array>
          </mxGeometry>
        </mxCell>
        <mxCell id="FQiXvJ6_Js1WaNVE7BKq-34" value="" style="edgeStyle=orthogonalEdgeStyle;rounded=0;orthogonalLoop=1;jettySize=auto;html=1;entryX=0.5;entryY=0;entryDx=0;entryDy=0;" parent="1" source="FQiXvJ6_Js1WaNVE7BKq-7" target="_xWxR4KmvNVSrHny2rZ4-4" edge="1">
          <mxGeometry relative="1" as="geometry">
            <mxPoint x="941.5555555555557" y="590.0000000000005" as="targetPoint" />
          </mxGeometry>
        </mxCell>
        <mxCell id="_xWxR4KmvNVSrHny2rZ4-8" value="" style="edgeStyle=orthogonalEdgeStyle;rounded=0;orthogonalLoop=1;jettySize=auto;html=1;entryX=1;entryY=0.5;entryDx=0;entryDy=0;" edge="1" parent="1" source="FQiXvJ6_Js1WaNVE7BKq-7" target="FQiXvJ6_Js1WaNVE7BKq-14">
          <mxGeometry relative="1" as="geometry">
            <mxPoint x="816.5" y="514.9999999999995" as="targetPoint" />
          </mxGeometry>
        </mxCell>
        <mxCell id="FQiXvJ6_Js1WaNVE7BKq-7" value="Choose" style="rhombus;whiteSpace=wrap;html=1;" parent="1" vertex="1">
          <mxGeometry x="896.5" y="470" width="90" height="90" as="geometry" />
        </mxCell>
        <mxCell id="FQiXvJ6_Js1WaNVE7BKq-10" value="" style="edgeStyle=orthogonalEdgeStyle;rounded=0;orthogonalLoop=1;jettySize=auto;html=1;" parent="1" source="FQiXvJ6_Js1WaNVE7BKq-8" target="FQiXvJ6_Js1WaNVE7BKq-7" edge="1">
          <mxGeometry relative="1" as="geometry" />
        </mxCell>
        <mxCell id="FQiXvJ6_Js1WaNVE7BKq-8" value="Search stocks and analyze&lt;div&gt;&lt;span style=&quot;background-color: initial;&quot;&gt;closing prices (1)&amp;nbsp;&lt;/span&gt;&lt;span style=&quot;background-color: initial;&quot;&gt;,&lt;/span&gt;&lt;div&gt;&lt;div&gt;Display Result(2) ,&lt;div&gt;&lt;span style=&quot;background-color: initial;&quot;&gt;Logout(3)&lt;/span&gt;&lt;/div&gt;&lt;/div&gt;&lt;/div&gt;&lt;/div&gt;" style="shape=parallelogram;perimeter=parallelogramPerimeter;whiteSpace=wrap;html=1;fixedSize=1;" parent="1" vertex="1">
          <mxGeometry x="827" y="350" width="229" height="70" as="geometry" />
        </mxCell>
        <mxCell id="FQiXvJ6_Js1WaNVE7BKq-13" value="3.Logout" style="text;html=1;align=center;verticalAlign=middle;resizable=0;points=[];autosize=1;strokeColor=none;fillColor=none;" parent="1" vertex="1">
          <mxGeometry x="990.5" y="480" width="70" height="30" as="geometry" />
        </mxCell>
        <mxCell id="FQiXvJ6_Js1WaNVE7BKq-29" style="edgeStyle=orthogonalEdgeStyle;rounded=0;orthogonalLoop=1;jettySize=auto;html=1;" parent="1" source="FQiXvJ6_Js1WaNVE7BKq-14" target="FQiXvJ6_Js1WaNVE7BKq-17" edge="1">
          <mxGeometry relative="1" as="geometry" />
        </mxCell>
        <mxCell id="FQiXvJ6_Js1WaNVE7BKq-14" value="Input information about the stock ticket" style="shape=parallelogram;perimeter=parallelogramPerimeter;whiteSpace=wrap;html=1;fixedSize=1;" parent="1" vertex="1">
          <mxGeometry x="490" y="485" width="170" height="60" as="geometry" />
        </mxCell>
        <mxCell id="FQiXvJ6_Js1WaNVE7BKq-23" value="" style="edgeStyle=orthogonalEdgeStyle;rounded=0;orthogonalLoop=1;jettySize=auto;html=1;" parent="1" source="FQiXvJ6_Js1WaNVE7BKq-17" target="FQiXvJ6_Js1WaNVE7BKq-22" edge="1">
          <mxGeometry relative="1" as="geometry" />
        </mxCell>
        <mxCell id="_xWxR4KmvNVSrHny2rZ4-9" style="edgeStyle=orthogonalEdgeStyle;rounded=0;orthogonalLoop=1;jettySize=auto;html=1;entryX=-0.001;entryY=0.863;entryDx=0;entryDy=0;entryPerimeter=0;" edge="1" parent="1" source="FQiXvJ6_Js1WaNVE7BKq-17" target="FQiXvJ6_Js1WaNVE7BKq-5">
          <mxGeometry relative="1" as="geometry">
            <mxPoint x="470" y="270" as="targetPoint" />
            <Array as="points">
              <mxPoint x="480" y="755" />
              <mxPoint x="480" y="265" />
            </Array>
          </mxGeometry>
        </mxCell>
        <mxCell id="FQiXvJ6_Js1WaNVE7BKq-17" value="Valid?" style="rhombus;whiteSpace=wrap;html=1;" parent="1" vertex="1">
          <mxGeometry x="535" y="715" width="80" height="80" as="geometry" />
        </mxCell>
        <mxCell id="FQiXvJ6_Js1WaNVE7BKq-19" value="invalid" style="text;html=1;align=center;verticalAlign=middle;resizable=0;points=[];autosize=1;strokeColor=none;fillColor=none;" parent="1" vertex="1">
          <mxGeometry x="475" y="720" width="60" height="30" as="geometry" />
        </mxCell>
        <mxCell id="FQiXvJ6_Js1WaNVE7BKq-31" value="" style="edgeStyle=orthogonalEdgeStyle;rounded=0;orthogonalLoop=1;jettySize=auto;html=1;" parent="1" source="FQiXvJ6_Js1WaNVE7BKq-22" target="FQiXvJ6_Js1WaNVE7BKq-30" edge="1">
          <mxGeometry relative="1" as="geometry" />
        </mxCell>
        <mxCell id="FQiXvJ6_Js1WaNVE7BKq-22" value="Analyze Closing Prices" style="rounded=0;whiteSpace=wrap;html=1;" parent="1" vertex="1">
          <mxGeometry x="680" y="725" width="120" height="60" as="geometry" />
        </mxCell>
        <mxCell id="FQiXvJ6_Js1WaNVE7BKq-24" value="Valid" style="text;html=1;align=center;verticalAlign=middle;resizable=0;points=[];autosize=1;strokeColor=none;fillColor=none;" parent="1" vertex="1">
          <mxGeometry x="620" y="720" width="50" height="30" as="geometry" />
        </mxCell>
        <mxCell id="_xWxR4KmvNVSrHny2rZ4-10" style="edgeStyle=orthogonalEdgeStyle;rounded=0;orthogonalLoop=1;jettySize=auto;html=1;" edge="1" parent="1" source="FQiXvJ6_Js1WaNVE7BKq-30">
          <mxGeometry relative="1" as="geometry">
            <mxPoint x="880" y="250" as="targetPoint" />
            <Array as="points">
              <mxPoint x="470" y="885" />
              <mxPoint x="470" y="250" />
            </Array>
          </mxGeometry>
        </mxCell>
        <mxCell id="FQiXvJ6_Js1WaNVE7BKq-30" value="Save Reuslt" style="rounded=0;whiteSpace=wrap;html=1;" parent="1" vertex="1">
          <mxGeometry x="680" y="855" width="120" height="60" as="geometry" />
        </mxCell>
        <mxCell id="FQiXvJ6_Js1WaNVE7BKq-35" value="2.Display Result" style="text;html=1;align=center;verticalAlign=middle;resizable=0;points=[];autosize=1;strokeColor=none;fillColor=none;" parent="1" vertex="1">
          <mxGeometry x="946" y="560" width="110" height="30" as="geometry" />
        </mxCell>
        <mxCell id="_xWxR4KmvNVSrHny2rZ4-3" value="1.&amp;nbsp;&lt;span style=&quot;text-wrap-mode: wrap;&quot;&gt;Search_stocks and&lt;/span&gt;&lt;div style=&quot;text-wrap-mode: wrap;&quot;&gt;analyze_closing_prices&lt;/div&gt;" style="text;html=1;align=center;verticalAlign=middle;resizable=0;points=[];autosize=1;strokeColor=none;fillColor=none;" vertex="1" parent="1">
          <mxGeometry x="677" y="460" width="150" height="40" as="geometry" />
        </mxCell>
        <mxCell id="_xWxR4KmvNVSrHny2rZ4-15" style="edgeStyle=orthogonalEdgeStyle;rounded=0;orthogonalLoop=1;jettySize=auto;html=1;entryX=0;entryY=0.5;entryDx=0;entryDy=0;" edge="1" parent="1" source="_xWxR4KmvNVSrHny2rZ4-4" target="_xWxR4KmvNVSrHny2rZ4-14">
          <mxGeometry relative="1" as="geometry" />
        </mxCell>
        <mxCell id="_xWxR4KmvNVSrHny2rZ4-4" value="Exist?" style="rhombus;whiteSpace=wrap;html=1;" vertex="1" parent="1">
          <mxGeometry x="901.5" y="645" width="80" height="80" as="geometry" />
        </mxCell>
        <mxCell id="_xWxR4KmvNVSrHny2rZ4-12" style="edgeStyle=orthogonalEdgeStyle;rounded=0;orthogonalLoop=1;jettySize=auto;html=1;entryX=-0.001;entryY=0.596;entryDx=0;entryDy=0;entryPerimeter=0;" edge="1" parent="1" source="_xWxR4KmvNVSrHny2rZ4-4" target="FQiXvJ6_Js1WaNVE7BKq-5">
          <mxGeometry relative="1" as="geometry">
            <Array as="points">
              <mxPoint x="942" y="930" />
              <mxPoint x="460" y="930" />
              <mxPoint x="460" y="236" />
            </Array>
          </mxGeometry>
        </mxCell>
        <mxCell id="_xWxR4KmvNVSrHny2rZ4-13" value="Does‘t exist" style="text;whiteSpace=wrap;" vertex="1" parent="1">
          <mxGeometry x="871.5" y="750" width="110" height="40" as="geometry" />
        </mxCell>
        <mxCell id="_xWxR4KmvNVSrHny2rZ4-17" value="" style="edgeStyle=orthogonalEdgeStyle;rounded=0;orthogonalLoop=1;jettySize=auto;html=1;" edge="1" parent="1" source="_xWxR4KmvNVSrHny2rZ4-14" target="_xWxR4KmvNVSrHny2rZ4-16">
          <mxGeometry relative="1" as="geometry" />
        </mxCell>
        <mxCell id="_xWxR4KmvNVSrHny2rZ4-14" value="Display Stock" style="rounded=0;whiteSpace=wrap;html=1;" vertex="1" parent="1">
          <mxGeometry x="1050" y="655" width="120" height="60" as="geometry" />
        </mxCell>
        <mxCell id="_xWxR4KmvNVSrHny2rZ4-19" style="edgeStyle=orthogonalEdgeStyle;rounded=0;orthogonalLoop=1;jettySize=auto;html=1;" edge="1" parent="1" source="_xWxR4KmvNVSrHny2rZ4-16" target="_xWxR4KmvNVSrHny2rZ4-18">
          <mxGeometry relative="1" as="geometry" />
        </mxCell>
        <mxCell id="_xWxR4KmvNVSrHny2rZ4-16" value="Input Ticket" style="shape=parallelogram;perimeter=parallelogramPerimeter;whiteSpace=wrap;html=1;fixedSize=1;" vertex="1" parent="1">
          <mxGeometry x="1050" y="780" width="120" height="60" as="geometry" />
        </mxCell>
        <mxCell id="_xWxR4KmvNVSrHny2rZ4-21" style="edgeStyle=orthogonalEdgeStyle;rounded=0;orthogonalLoop=1;jettySize=auto;html=1;entryX=0.5;entryY=0;entryDx=0;entryDy=0;" edge="1" parent="1" source="_xWxR4KmvNVSrHny2rZ4-18" target="_xWxR4KmvNVSrHny2rZ4-20">
          <mxGeometry relative="1" as="geometry" />
        </mxCell>
        <mxCell id="_xWxR4KmvNVSrHny2rZ4-25" style="edgeStyle=orthogonalEdgeStyle;rounded=0;orthogonalLoop=1;jettySize=auto;html=1;entryX=0;entryY=0.5;entryDx=0;entryDy=0;" edge="1" parent="1" source="_xWxR4KmvNVSrHny2rZ4-18" target="FQiXvJ6_Js1WaNVE7BKq-5">
          <mxGeometry relative="1" as="geometry">
            <mxPoint x="810" y="220" as="targetPoint" />
            <Array as="points">
              <mxPoint x="450" y="1010" />
              <mxPoint x="450" y="225" />
            </Array>
          </mxGeometry>
        </mxCell>
        <mxCell id="_xWxR4KmvNVSrHny2rZ4-18" value="Valid?" style="rhombus;whiteSpace=wrap;html=1;" vertex="1" parent="1">
          <mxGeometry x="1070" y="970" width="80" height="80" as="geometry" />
        </mxCell>
        <mxCell id="_xWxR4KmvNVSrHny2rZ4-20" value="Display Result" style="rounded=0;whiteSpace=wrap;html=1;" vertex="1" parent="1">
          <mxGeometry x="1050" y="1120" width="120" height="60" as="geometry" />
        </mxCell>
        <mxCell id="_xWxR4KmvNVSrHny2rZ4-22" value="Valid" style="text;html=1;align=center;verticalAlign=middle;resizable=0;points=[];autosize=1;strokeColor=none;fillColor=none;" vertex="1" parent="1">
          <mxGeometry x="1110" y="1060" width="50" height="30" as="geometry" />
        </mxCell>
        <mxCell id="_xWxR4KmvNVSrHny2rZ4-26" style="edgeStyle=orthogonalEdgeStyle;rounded=0;orthogonalLoop=1;jettySize=auto;html=1;entryX=0.006;entryY=0.354;entryDx=0;entryDy=0;entryPerimeter=0;" edge="1" parent="1" source="_xWxR4KmvNVSrHny2rZ4-20" target="FQiXvJ6_Js1WaNVE7BKq-5">
          <mxGeometry relative="1" as="geometry">
            <Array as="points">
              <mxPoint x="440" y="1150" />
              <mxPoint x="440" y="209" />
            </Array>
          </mxGeometry>
        </mxCell>
        <mxCell id="_xWxR4KmvNVSrHny2rZ4-27" value="invalid" style="text;html=1;align=center;verticalAlign=middle;resizable=0;points=[];autosize=1;strokeColor=none;fillColor=none;" vertex="1" parent="1">
          <mxGeometry x="1010" y="980" width="60" height="30" as="geometry" />
        </mxCell>
      </root>
    </mxGraphModel>
  </diagram>
</mxfile>
